<?xml version="1.0" ?><!DOCTYPE svg  PUBLIC '-//W3C//DTD SVG 1.1//EN'  'http://www.w3.org/Graphics/SVG/1.1/DTD/svg11.dtd'><svg height="2048px" style="shape-rendering:geometricPrecision; text-rendering:geometricPrecision; image-rendering:optimizeQuality; fill-rule:evenodd; clip-rule:evenodd" viewBox="0 0 2048 2048" width="2048px" xml:space="preserve" xmlns="http://www.w3.org/2000/svg" xmlns:xlink="http://www.w3.org/1999/xlink"><defs><style type="text/css">
   <![CDATA[
    .fil0 {fill:none}
    .fil2 {fill:#7186B3}
    .fil1 {fill:#333333;fill-rule:nonzero}
   ]]>
  </style></defs><g id="Layer_x0020_1"><rect class="fil0" height="2048" width="2048"/><path class="fil1" d="M680.532 762.667l180.266 0 0 -229.334c0,-0.700394 0.0448819,-1.39016 0.132284,-2.06693 3.71457,-70.48 17.9599,-134.177 50.7945,-180.936 34.0571,-48.502 87.0095,-78.3319 167.06,-78.3319l288.683 0c8.83583,0 16.0004,7.16457 16.0004,16.0004l0 231.157c0,8.83583 -7.16457,16.0004 -16.0004,16.0004l-113.958 0c-29.3941,0 -51.4489,4.50237 -65.7556,16.3169l-10.187 -12.3118 10.187 12.3378c-0.309449,0.255118 -0.625985,0.494882 -0.947245,0.724016 -13.2614,11.5039 -20.7366,30.8386 -22.3618,60.7382l0.022441 0 0 149.705 203 0c8.83583,0 16.0004,7.16457 16.0004,16.0004l0 245.333c0,8.83583 -7.16457,16.0004 -16.0004,16.0004l-203 0 0 720.001c0,8.83583 -7.16457,16.0004 -16.0004,16.0004l-271.669 0c-8.83583,0 -16.0004,-7.16457 -16.0004,-16.0004l0 -720.001 -180.266 0c-8.83583,0 -16.0004,-7.16457 -16.0004,-16.0004l0 -245.333c0,-8.83583 7.16457,-16.0004 16.0004,-16.0004zm196.266 32.0008l-180.266 0 0 213.332 180.266 0c8.83583,0 16.0004,7.16457 16.0004,16.0004l0 720.001 239.668 0 0 -720.001c0,-8.83583 7.16457,-16.0004 16.0004,-16.0004l203 0 0 -213.332 -203 0c-8.83583,0 -16.0004,-7.16457 -16.0004,-16.0004l0 -165.693 0 -0.011811c0,-0.269292 0.00708662,-0.539764 0.0212599,-0.811418l0.0448819 0.00236221c2.03622,-39.913 13.3134,-66.7808 33.6898,-84.2741 0.364961,-0.366142 0.750001,-0.718111 1.15748,-1.05473l0.0129921 0.0153543c20.7756,-17.1484 49.4197,-23.6835 86.1166,-23.6835l97.9572 0 0 -199.156 -272.682 0c-68.2229,0 -112.804,24.6414 -140.936,64.7067 -28.9878,41.2819 -41.6469,99.3343 -45.0532,164.277l0.00354331 0.349607 0 245.334c0,8.83583 -7.16457,16.0004 -16.0004,16.0004z"/><path class="fil2" d="M1132.47 612.974l0 0zm-239.668 -79.6406l0 245.334c0,8.83583 -7.16457,16.0004 -16.0004,16.0004l-180.266 0 0 213.332 180.266 0c8.83583,0 16.0004,7.16457 16.0004,16.0004l0 720.001 239.668 0 0 -720.001c0,-8.83583 7.16457,-16.0004 16.0004,-16.0004l203 0 0 -213.332 -203 0c-8.83583,0 -16.0004,-7.16457 -16.0004,-16.0004l0 -165.705 0.0212599 -0.811418 0.0448819 0.00236221c2.03622,-39.913 13.3134,-66.7808 33.6898,-84.2741 0.364961,-0.366142 0.750001,-0.718111 1.15748,-1.05473l0.0129921 0.0153543c20.7756,-17.1484 49.4197,-23.6835 86.1166,-23.6835l97.9572 0 0 -199.156 -272.682 0c-68.2229,0 -112.804,24.6414 -140.936,64.7067 -28.9878,41.2819 -41.6469,99.3343 -45.0532,164.277l0.00354331 0.349607z"/></g><rect class="fil0" height="2048" width="2048"/></svg>